<?xml version="1.0" standalone="no"?><!DOCTYPE svg PUBLIC "-//W3C//DTD SVG 1.1//EN" "http://www.w3.org/Graphics/SVG/1.1/DTD/svg11.dtd"><svg class="icon" viewBox="0 0 1024 1024" version="1.1" xmlns="http://www.w3.org/2000/svg" width="32" height="32" xmlns:xlink="http://www.w3.org/1999/xlink"><path d="M806.5024 104.2432H393.216c-62.208 0-112.64 50.432-112.64 112.64V278.4256h352.1024c62.208 0 112.64 50.432 112.64 112.64v351.744H806.5024c62.208 0 112.64-50.432 112.64-112.64V216.8832c0-62.208-50.3808-112.64-112.64-112.64z" fill="#FACC31"></path><path d="M806.5024 78.6432H393.216c-76.2368 0-138.24 62.0032-138.24 138.24v35.9424h-35.6352c-76.2368 0-138.24 62.0032-138.24 138.24v413.2864c0 76.2368 62.0032 138.24 138.24 138.24h413.2864c76.2368 0 138.24-62.0032 138.24-138.24v-35.9424h35.6352c76.2368 0 138.24-62.0032 138.24-138.24V216.8832c0-76.2368-62.0032-138.24-138.24-138.24z m-86.784 725.76c0 47.9744-39.0656 87.04-87.04 87.04H219.3408c-47.9744 0-87.04-39.0656-87.04-87.04V391.0656c0-47.9744 39.0656-87.04 87.04-87.04H632.6784c47.9744 0 87.04 39.0656 87.04 87.04v413.3376z m173.824-174.1824c0 47.9744-39.0656 87.04-87.04 87.04h-35.6352v-326.144c0-76.2368-62.0032-138.24-138.24-138.24H306.176v-35.9424c0-47.9744 39.0656-87.04 87.04-87.04h413.2864c47.9744 0 87.04 39.0656 87.04 87.04v413.2864z" fill="#191919"></path><path d="M570.7776 537.6H280.576c-14.1312 0-25.6-11.4688-25.6-25.6s11.4688-25.6 25.6-25.6h290.2016c14.1312 0 25.6 11.4688 25.6 25.6s-11.4688 25.6-25.6 25.6zM570.7776 710.6048H280.576c-14.1312 0-25.6-11.4688-25.6-25.6s11.4688-25.6 25.6-25.6h290.2016c14.1312 0 25.6 11.4688 25.6 25.6s-11.4688 25.6-25.6 25.6z" fill="#191919"></path></svg>