<?xml version="1.0" standalone="no"?><!DOCTYPE svg PUBLIC "-//W3C//DTD SVG 1.1//EN" "http://www.w3.org/Graphics/SVG/1.1/DTD/svg11.dtd"><svg viewBox="0 0 1024 1024" version="1.1" xmlns="http://www.w3.org/2000/svg" xmlns:xlink="http://www.w3.org/1999/xlink" width="32" height="32"><path d="M283.022222 780.8c-58.311111 0-85.333333-21.333333-96.711111-42.666667-15.644444-28.444444-18.488889-78.222222 56.888889-159.288889 11.377778-12.8 24.177778-25.6 38.4-36.977777l2.844444-2.844445c12.8-8.533333 31.288889-5.688889 39.822223 8.533334 8.533333 12.8 5.688889 28.444444-5.688889 36.977777-12.8 11.377778-24.177778 22.755556-34.133334 32.711111-49.777778 54.044444-54.044444 83.911111-49.777777 92.444445 4.266667 8.533333 32.711111 21.333333 105.244444 7.111111 8.533333-1.422222 17.066667-4.266667 25.6-5.688889h1.422222c4.266667-1.422222 9.955556-2.844444 14.222223-4.266667 7.111111-1.422222 14.222222-4.266667 21.333333-7.111111 4.266667-1.422222 9.955556-2.844444 14.222222-4.266666 11.377778-4.266667 25.6-8.533333 38.4-14.222223 8.533333-4.266667 17.066667-7.111111 27.022222-11.377777 7.111111-2.844444 15.644444-7.111111 22.755556-9.955556l8.533333-4.266667c7.111111-2.844444 14.222222-7.111111 21.333334-9.955555 28.444444-14.222222 55.466667-29.866667 82.488888-46.933333l21.333334-12.8 7.111111-4.266667c7.111111-4.266667 14.222222-9.955556 21.333333-14.222222 8.533333-5.688889 15.644444-11.377778 24.177778-17.066667 11.377778-8.533333 21.333333-17.066667 32.711111-25.6 2.844444-2.844444 7.111111-5.688889 11.377778-9.955556 5.688889-5.688889 11.377778-9.955556 17.066667-14.222222 4.266667-4.266667 8.533333-7.111111 11.377777-11.377778l1.422223-1.422222 18.488888-18.488889c49.777778-54.044444 54.044444-85.333333 49.777778-93.866666-8.533333-7.111111-35.555556-19.911111-108.088889-4.266667-14.222222 2.844444-29.866667 7.111111-46.933333 11.377778-12.8 4.266667-27.022222-1.422222-34.133333-12.8-7.111111-14.222222-2.844444-31.288889 11.377777-38.4 1.422222-1.422222 4.266667-1.422222 5.688889-2.844445 18.488889-5.688889 35.555556-9.955556 52.622223-12.8 108.088889-22.755556 150.755556 7.111111 166.4 34.133334 15.644444 28.444444 18.488889 78.222222-56.888889 159.288889-5.688889 7.111111-12.8 14.222222-21.333334 21.333333l-1.422222 1.422222c-4.266667 2.844444-8.533333 7.111111-12.8 11.377778-5.688889 5.688889-11.377778 9.955556-18.488889 15.644444-2.844444 2.844444-7.111111 7.111111-11.377778 9.955556-11.377778 9.955556-22.755556 18.488889-34.133333 27.022222-8.533333 5.688889-17.066667 11.377778-25.6 18.488889-7.111111 5.688889-14.222222 9.955556-21.333333 14.222222l-7.111111 4.266667c-8.533333 5.688889-15.644444 9.955556-22.755556 14.222222-27.022222 17.066667-56.888889 34.133333-86.755555 48.355556-7.111111 4.266667-15.644444 7.111111-22.755556 11.377777l-7.111111 4.266667c-7.111111 4.266667-15.644444 7.111111-24.177778 11.377778-9.955556 4.266667-18.488889 8.533333-28.444444 11.377778-14.222222 5.688889-27.022222 11.377778-41.244445 15.644444-5.688889 1.422222-9.955556 2.844444-15.644444 5.688889-7.111111 2.844444-15.644444 4.266667-22.755556 7.111111l-17.066666 4.266667h-1.422223c-9.955556 2.844444-19.911111 4.266667-28.444444 7.111111-25.6 5.688889-48.355556 7.111111-68.266667 7.111111z" fill="#F1C25F"></path><path d="M544.711111 834.844444c-24.177778 0-49.777778-2.844444-73.955555-9.955555-69.688889-19.911111-128-65.422222-163.555556-128s-44.088889-136.533333-24.177778-206.222222 65.422222-128 128-163.555556c130.844444-73.955556 295.822222-27.022222 369.777778 103.822222 35.555556 62.577778 44.088889 136.533333 24.177778 206.222223s-65.422222 128-128 163.555555c-41.244444 22.755556-86.755556 34.133333-132.266667 34.133333zM356.977778 668.444444c28.444444 49.777778 73.955556 85.333333 129.422222 100.977778s113.777778 8.533333 163.555556-19.911111 85.333333-73.955556 100.977777-129.422222c15.644444-55.466667 8.533333-113.777778-19.911111-163.555556-58.311111-103.822222-189.155556-139.377778-291.555555-82.488889-49.777778 28.444444-85.333333 73.955556-100.977778 129.422223-17.066667 56.888889-9.955556 115.2 18.488889 164.977777z" fill="#433d3f"></path><path d="M283.022222 780.8c-64 0-89.6-25.6-99.555555-49.777778-5.688889-14.222222 1.422222-31.288889 15.644444-36.977778s31.288889 1.422222 36.977778 15.644445c4.266667 11.377778 36.977778 21.333333 105.244444 7.111111 8.533333-1.422222 17.066667-4.266667 25.6-5.688889 130.844444-34.133333 297.244444-128 395.377778-221.866667 7.111111-5.688889 12.8-12.8 18.488889-18.488888 49.777778-54.044444 54.044444-83.911111 49.777778-92.444445-7.111111-14.222222-2.844444-31.288889 11.377778-38.4s31.288889-2.844444 38.4 11.377778c15.644444 28.444444 18.488889 78.222222-56.888889 159.288889l-21.333334 21.333333C698.311111 632.888889 521.955556 732.444444 381.155556 768c-9.955556 2.844444-19.911111 4.266667-28.444445 7.111111-27.022222 4.266667-51.2 5.688889-69.688889 5.688889z" fill="#F1C25F"></path></svg>