<?xml version="1.0" standalone="no"?><!DOCTYPE svg PUBLIC "-//W3C//DTD SVG 1.1//EN" "http://www.w3.org/Graphics/SVG/1.1/DTD/svg11.dtd"><svg viewBox="0 0 1133 1024" version="1.1" xmlns="http://www.w3.org/2000/svg" xmlns:xlink="http://www.w3.org/1999/xlink" width="141.625" height="128"><path d="M1011.05921445 513.49418896a448.2567791 448.2567791 0 0 0-71.22302226-242.05866064A448.2567791 448.2567791 0 0 0 582.22689541 961.00387402a448.2567791 448.2567791 0 0 0 428.83231904-447.50968506z" fill="currentColor"></path><path d="M562.80243536 111.80630849a398.4504706 398.4504706 0 1 1-398.45047062 398.45047062 398.4504706 398.4504706 0 0 1 398.45047061-398.45047062m1e-8-49.80630849a448.2567791 448.2567791 0 1 0 448.25677909 448.25677911 448.2567791 448.2567791 0 0 0-448.25677909-448.25677911z" fill="#2c2c2c"></path><path d="M1042.93525185 225.11566162c-27.39346963-47.31599355-88.90426143-70.47592734-170.08854433-70.47592734a532.92750381 532.92750381 0 0 0-58.02435 3.98450478 460.45932451 460.45932451 0 0 1 59.7675709 46.07083565c64.00110674 0 108.32872148 16.43608213 124.51577168 45.32374072 21.16768096 36.85666816 1.49418896 102.6009958-52.54565625 175.81627002a962.00885479 962.00885479 0 0 1-289.62368526 245.29607139c-143.44216963 82.92750381-296.59656885 132.48478125-409.4078581 132.48478125-64.99723271 0-110.07194238-16.1870502-127.0060875-45.57277266s-9.21416748-68.48367451 15.6889872-116.54676299a444.7703373 444.7703373 0 0 1-11.95351435-76.20365215C65.98450479 648.96734903 45.56391787 727.66131699 77.43995615 782.94632011c27.39346963 47.31599355 88.90426143 70.47592734 170.08854434 70.47592647 117.54288896 0 276.6740458-48.0630876 434.31101279-139.20863291C948.05423369 560.0630876 1109.9247374 341.41339268 1042.93525185 225.11566162z" fill="#2c2c2c"></path></svg>
