<?xml version="1.0" standalone="no"?><!DOCTYPE svg PUBLIC "-//W3C//DTD SVG 1.1//EN" "http://www.w3.org/Graphics/SVG/1.1/DTD/svg11.dtd"><svg viewBox="0 0 1024 1024" version="1.1" xmlns="http://www.w3.org/2000/svg" xmlns:xlink="http://www.w3.org/1999/xlink" width="32" height="32"><path d="M862.315789 194.021053c21.557895 21.557895 21.557895 48.505263 0 70.063158l-307.2 307.2c-21.557895 21.557895-48.505263 21.557895-70.063157 0L177.852632 264.084211C156.294737 242.526316 156.294737 215.578947 177.852632 194.021053s48.505263-21.557895 70.063157 0l269.473685 269.473684 269.473684-269.473684c5.389474-10.778947 21.557895-16.168421 32.336842-16.168421s21.557895 5.389474 43.115789 16.168421z" fill="#f9e1b6"></path><path d="M856.926316 463.494737c21.557895 21.557895 21.557895 48.505263 0 70.063158l-307.2 307.2c-21.557895 21.557895-48.505263 21.557895-70.063158 0L172.463158 533.557895C150.905263 512 150.905263 485.052632 172.463158 463.494737s48.505263-21.557895 75.452631 0l269.473685 269.473684 269.473684-269.473684c5.389474-10.778947 21.557895-16.168421 32.336842-16.168421s21.557895 5.389474 37.726316 16.168421z" fill="#fcca6d"></path></svg>