<?xml version="1.0" standalone="no"?><!DOCTYPE svg PUBLIC "-//W3C//DTD SVG 1.1//EN" "http://www.w3.org/Graphics/SVG/1.1/DTD/svg11.dtd"><svg t="1678296606488" class="icon" viewBox="0 0 1024 1024" version="1.1" xmlns="http://www.w3.org/2000/svg" p-id="35651" xmlns:xlink="http://www.w3.org/1999/xlink" width="128" height="128"><path d="M737.28 174.08H298.7008a54.4256 54.4256 0 0 0-54.4256 54.5792v37.2224C421.0176 292.1984 676.352 337.92 791.552 561.2032V228.6592A54.4256 54.4256 0 0 0 737.28 174.08z" fill="currentColor" p-id="35652" data-spm-anchor-id="a313x.7781069.0.i46" class=""></path><path d="M263.936 884.4288a62.3616 62.3616 0 0 1-62.208-62.2592V224.7168A85.2992 85.2992 0 0 1 286.72 139.5712h438.3744a85.248 85.248 0 0 1 85.1456 85.1456v597.4528a62.2592 62.2592 0 0 1-90.112 55.6544l-215.04-107.52L291.84 877.7216a62.208 62.208 0 0 1-27.904 6.7072zM286.72 201.0112a23.7568 23.7568 0 0 0-23.7568 23.7056v597.4528c0 0.3072 0 0.4096 0.4096 0.6656a0.6144 0.6144 0 0 0 0.768 0l240.64-121.5488 242.7904 121.6a0.7168 0.7168 0 0 0 0.768 0c0.3584-0.256 0.3584-0.3584 0.3584-0.6656V224.7168a23.7568 23.7568 0 0 0-23.7056-23.7056z" fill="#333333" p-id="35653"></path><path d="M664.2688 733.8496a30.3616 30.3616 0 0 1-14.3872-3.5328l-143.7696-76.2368-143.8208 76.2368A30.72 30.72 0 0 1 333.5168 675.84L491.52 592.1792a30.72 30.72 0 0 1 28.7744 0L678.656 675.84a30.72 30.72 0 0 1-14.3872 57.856z" fill="#333333" p-id="35654"></path></svg>