<?xml version="1.0" standalone="no"?><!DOCTYPE svg PUBLIC "-//W3C//DTD SVG 1.1//EN" "http://www.w3.org/Graphics/SVG/1.1/DTD/svg11.dtd"><svg t="1668692929797" class="icon" viewBox="0 0 1024 1024" version="1.1" xmlns="http://www.w3.org/2000/svg" p-id="2733" width="32" height="32" xmlns:xlink="http://www.w3.org/1999/xlink"><path d="M511.998465 1019.833097c0 0-380.87252-424.445922-380.87252-634.792651 0-210.328309 170.528861-380.874567 380.87252-380.874567 210.344682 0 380.87559 170.546258 380.87559 380.874567C892.874055 595.386152 511.998465 1019.833097 511.998465 1019.833097zM511.998465 131.12441c-140.223648 0-253.916037 113.692389-253.916037 253.91706 0 140.243091 113.692389 253.91706 253.916037 253.91706 140.224672 0 253.915014-113.673969 253.915014-253.91706C765.913479 244.814752 652.223137 131.12441 511.998465 131.12441zM511.998465 511.997953c-70.120011 0-126.956484-56.837496-126.956484-126.956484 0-70.121034 56.836473-126.95853 126.956484-126.95853 70.120011 0 126.959553 56.837496 126.959553 126.95853C638.958018 455.160457 582.118476 511.997953 511.998465 511.997953z" p-id="2734" fill="#92a3aa"></path></svg>