<?xml version="1.0" standalone="no"?><!DOCTYPE svg PUBLIC "-//W3C//DTD SVG 1.1//EN" "http://www.w3.org/Graphics/SVG/1.1/DTD/svg11.dtd"><svg viewBox="0 0 1024 1024" version="1.1" xmlns="http://www.w3.org/2000/svg" xmlns:xlink="http://www.w3.org/1999/xlink" width="32" height="32"><path d="M153.12 120.32h716.93v255.2H153.12z" fill="#fcb93e"></path><path d="M902.06 948.13L511.59 822.74 121.12 948.13V88.32h780.94zM511.59 755.52l326.47 104.83v-708H185.12v708z"></path><path d="M547.77 405.48h46.6l12 86.36L614 552h1c3.64-20.11 7.4-40.53 11.23-60.13l19.34-86.36h38.3l19.92 86.36c3.83 19.34 7.08 39.77 10.91 60.13h1.34c2.3-20.36 4.79-40.53 7.09-60.13l12.25-86.36h43.28l-32.82 189.54h-57.32l-17.24-82.53q-4.6-21.86-7.34-44h-1.27c-2.3 14.23-4.6 29.49-7.41 44l-16.53 82.53h-56.3z" p-id="5539"></path><path d="M439.01 405.48h120.33v37.66h-74.69v35.17h63.45v38.23h-63.45v40.28h77.49v38.23H439.01V405.48zM244.46 405.48h46.4l47.14 90.7 18.58 42.06h1.28c-2.56-20.17-6.13-47.42-6.13-70.08v-62.68H395v189.57h-46.31l-46.91-91.47L283.2 462h-1.27c2 21.19 5.87 47.17 5.87 70.15v62.93h-43.34zM239.32 220.75H425.3v64H239.32z"></path></svg>