<?xml version="1.0" standalone="no"?><!DOCTYPE svg PUBLIC "-//W3C//DTD SVG 1.1//EN" "http://www.w3.org/Graphics/SVG/1.1/DTD/svg11.dtd"><svg viewBox="0 0 1024 1024" version="1.1" xmlns="http://www.w3.org/2000/svg" xmlns:xlink="http://www.w3.org/1999/xlink" width="32" height="32"><path d="M665.65 28.3c-76.085 0-139.942 52.676-158.38 123.19H49.71v82.13h457.56c18.438 70.514 82.295 123.18 158.38 123.18s139.942-52.666 158.38-123.18h129.06v-82.13H824.03C805.592 80.976 741.735 28.3 665.65 28.3z m0 82.13c45.169 0 82.13 36.951 82.13 82.12 0 45.169-36.961 82.13-82.13 82.13s-82.12-36.961-82.12-82.13 36.951-82.12 82.12-82.12zM337.03 346.26c-76.085 0-139.942 52.676-158.38 123.19H49.59v82.13h129.06c18.438 70.514 82.295 123.18 158.38 123.18 76.084 0 139.932-52.666 158.37-123.18h457.56v-82.13H495.4c-18.438-70.514-82.286-123.19-158.37-123.19z m0 82.13c45.169 0 82.12 36.951 82.12 82.12 0 45.169-36.951 82.13-82.12 82.13-45.169 0-82.13-36.961-82.13-82.13s36.961-82.12 82.13-82.12z m328.5 245.81c-76.088 0-139.945 52.67-158.38 123.19H49.59v82.12h457.56c18.438 70.514 82.295 123.19 158.38 123.19 76.084 0 139.932-52.676 158.37-123.19h129.06v-82.12H823.91c-18.434-70.52-82.291-123.19-158.38-123.19z m0 82.12c45.169 0 82.12 36.961 82.12 82.13s-36.951 82.12-82.12 82.12c-45.169 0-82.13-36.951-82.13-82.12 0-45.169 36.961-82.13 82.13-82.13z" fill="#ffffff"></path></svg>