<?xml version="1.0" standalone="no"?><!DOCTYPE svg PUBLIC "-//W3C//DTD SVG 1.1//EN" "http://www.w3.org/Graphics/SVG/1.1/DTD/svg11.dtd"><svg viewBox="0 0 1024 1024" version="1.1" xmlns="http://www.w3.org/2000/svg" xmlns:xlink="http://www.w3.org/1999/xlink" width="32" height="32"><path d="M512 2.56C231.424 2.56 3.584 229.888 3.584 510.976S231.424 1018.88 512 1018.88s508.416-227.328 508.416-508.416S793.088 2.56 512 2.56z m0 941.568c-239.616 0-433.664-194.048-433.664-433.664C78.336 270.848 272.384 76.8 512 76.8s433.664 194.048 433.664 433.664-194.048 433.664-433.664 433.664z" fill="currentColor" p-id="665"></path><path d="M494.592 576.512C394.24 576.512 312.32 495.104 312.32 394.752s81.92-182.272 182.272-182.272 182.272 81.408 182.272 182.272-81.92 181.76-182.272 181.76z m0-321.536c-76.8 0-139.264 62.464-139.264 139.264s62.464 139.264 139.264 139.264S633.856 471.04 633.856 394.24s-62.464-139.264-139.264-139.264z" fill="#433d3f"></path><path d="M634.368 628.224c16.384 0 23.552-20.48 11.264-30.72-41.984-34.304-95.232-55.296-153.6-55.296-133.12 0-241.152 108.032-241.664 240.64 0 9.728 8.192 18.432 17.92 18.432 9.216-0.512 16.896-7.68 16.896-17.408 0-114.176 92.672-206.848 206.848-206.848 49.664 0 95.232 17.408 131.072 47.104 3.584 2.56 7.168 4.096 11.264 4.096zM630.272 806.912l-1.024-0.512c-7.68-4.608-10.24-14.336-6.144-22.016l138.752-240.64c4.608-7.68 14.336-10.24 22.016-6.144l1.024 0.512c7.68 4.608 10.24 14.336 6.144 22.016l-138.752 240.64c-4.096 7.68-14.336 10.752-22.016 6.144z" fill="#433d3f"></path></svg>
