<?xml version="1.0" standalone="no"?><!DOCTYPE svg PUBLIC "-//W3C//DTD SVG 1.1//EN" "http://www.w3.org/Graphics/SVG/1.1/DTD/svg11.dtd"><svg viewBox="0 0 1024 1024" version="1.1" xmlns="http://www.w3.org/2000/svg" xmlns:xlink="http://www.w3.org/1999/xlink" width="32" height="32"><path d="M826.368 253.6448c-57.344-57.344-142.4384-69.9392-212.0192-37.8368-33.7408 184.1152-231.3728 308.2752-449.5872 279.1424-3.2256-0.4096-6.3488-0.9728-9.5744-1.4848 6.4 9.2672 13.6704 18.1248 21.9648 26.4192l58.4192 58.4192 258.9696 258.9696c3.9936 3.9936 10.496 3.9936 14.4896 0L768 578.304l58.4192-58.4192c73.472-73.5744 73.472-192.768-0.0512-266.24z" fill="currentColor"></path><path d="M501.76 860.672c-8.192 0-15.9232-3.1744-21.7088-9.0112l-317.3888-317.3888c-81.3568-81.3568-81.3568-213.8112 0-295.168s213.8112-81.3568 295.168 0a20.52096 20.52096 0 0 1 0 28.9792 20.52096 20.52096 0 0 1-28.9792 0c-65.4336-65.3824-171.8272-65.4336-237.2608 0s-65.4336 171.8272 0 237.2608L501.76 815.4624l310.1184-310.1184c65.4336-65.4336 65.4336-171.8272 0-237.2608s-171.8272-65.4336-237.2608 0L454.144 384.9728a20.48 20.48 0 0 1-28.9792-0.4608 20.47488 20.47488 0 0 1 0.4608-28.9792l120.2688-116.6848c39.2192-39.2192 91.5968-60.928 147.3536-60.928s108.1856 21.7088 147.6096 61.1328c81.3568 81.3568 81.3568 213.8112 0 295.168l-317.3888 317.3888A30.19264 30.19264 0 0 1 501.76 860.672z" fill="#433d3f"></path></svg>
