<?xml version="1.0" standalone="no"?><!DOCTYPE svg PUBLIC "-//W3C//DTD SVG 1.1//EN" "http://www.w3.org/Graphics/SVG/1.1/DTD/svg11.dtd"><svg viewBox="0 0 1024 1024" version="1.1" xmlns="http://www.w3.org/2000/svg" p-id="9551" xmlns:xlink="http://www.w3.org/1999/xlink" width="32" height="32"><path d="M288 288 160 288c-17.664 0-32 14.336-32 32l0 544c0 17.696 14.336 32 32 32l128 0c17.664 0 32-14.304 32-32L320 320C320 302.336 305.664 288 288 288z" p-id="9552" data-spm-anchor-id="a313x.7781069.0.i11" class="" fill="#fdba2f"></path><path d="M576 480l-128 0c-17.664 0-32 14.336-32 32l0 352c0 17.696 14.336 32 32 32l128 0c17.696 0 32-14.304 32-32L608 512C608 494.336 593.696 480 576 480z" p-id="9553"></path><path d="M864 128l-128 0c-17.696 0-32 14.336-32 32l0 704c0 17.696 14.304 32 32 32l128 0c17.696 0 32-14.304 32-32L896 160C896 142.336 881.696 128 864 128z" p-id="9554"></path></svg>