<?xml version="1.0" standalone="no"?><!DOCTYPE svg PUBLIC "-//W3C//DTD SVG 1.1//EN" "http://www.w3.org/Graphics/SVG/1.1/DTD/svg11.dtd"><svg viewBox="0 0 1024 1024" version="1.1" xmlns="http://www.w3.org/2000/svg" xmlns:xlink="http://www.w3.org/1999/xlink" width="32" height="32"><path d="M810.666667 981.333333l-55.466667-115.2L640 810.666667l115.2-55.466667L810.666667 640l51.2 115.2L981.333333 810.666667l-119.466666 51.2L810.666667 981.333333zM384 853.333333l-106.666667-234.666666L42.666667 512l234.666666-106.666667L384 170.666667l106.666667 234.666666L725.333333 512l-234.666666 106.666667L384 853.333333zM384 341.333333l-55.466667 115.2L213.333333 512l115.2 55.466667L384 682.666667l51.2-115.2L554.666667 512l-119.466667-51.2L384 341.333333z m426.666667 42.666667l-55.466667-115.2L640 213.333333l115.2-51.2L810.666667 42.666667l51.2 119.466666L981.333333 213.333333l-119.466666 55.466667L810.666667 384z"></path></svg>