<?xml version="1.0" standalone="no"?><!DOCTYPE svg PUBLIC "-//W3C//DTD SVG 1.1//EN" "http://www.w3.org/Graphics/SVG/1.1/DTD/svg11.dtd"><svg viewBox="0 0 1024 1024" version="1.1" xmlns="http://www.w3.org/2000/svg" xmlns:xlink="http://www.w3.org/1999/xlink" width="128" height="128"><path d="M512 117.333333a394.666667 394.666667 0 1 0 0 789.333334 394.666667 394.666667 0 0 0 0-789.333334zM53.333333 512C53.333333 258.688 258.688 53.333333 512 53.333333S970.666667 258.688 970.666667 512 765.312 970.666667 512 970.666667 53.333333 765.312 53.333333 512z" fill="#555555"></path><path d="M489.386667 392.917333a32 32 0 0 1 45.226666 0l150.613334 150.186667A32 32 0 0 1 640 588.373333L512 460.8l-128 127.658667a32 32 0 0 1-45.226667-45.312l150.613334-150.186667z" fill="#666666"></path></svg>