<?xml version="1.0" standalone="no"?>
<!DOCTYPE svg PUBLIC "-//W3C//DTD SVG 20010904//EN"
 "http://www.w3.org/TR/2001/REC-SVG-20010904/DTD/svg10.dtd">
<svg version="1.0" xmlns="http://www.w3.org/2000/svg"
 width="64.000000pt" height="64.000000pt" viewBox="0 0 64.000000 64.000000"
 preserveAspectRatio="xMidYMid meet">

<g transform="translate(0.000000,64.000000) scale(0.100000,-0.100000)"
fill="#000000" stroke="none">
<path d="M220 580 c-101 -34 -180 -147 -180 -255 0 -144 131 -275 275 -275
144 0 275 131 275 275 0 111 -85 228 -189 259 -70 21 -113 20 -181 -4z m201
-116 c38 -19 69 -70 69 -113 0 -85 -80 -139 -190 -128 -58 7 -60 6 -60 -17 0
-14 6 -27 13 -29 6 -3 -4 -6 -23 -6 l-35 -1 3 120 c2 78 0 120 -7 120 -6 0
-13 -11 -17 -25 -3 -14 -10 -25 -14 -25 -9 0 -25 39 -18 44 1 1 20 15 41 31
72 53 169 65 238 29z"/>
<path d="M292 460 c-19 -4 -38 -12 -43 -17 -6 -6 -9 -50 -7 -98 l3 -89 40 -9
c87 -18 155 29 155 108 0 33 -6 50 -29 74 -16 17 -36 31 -44 31 -9 0 -21 2
-29 4 -7 2 -28 0 -46 -4z"/>
</g>
</svg>
